<svg width="162" height="162" viewBox="0 0 162 162" fill="none" xmlns="http://www.w3.org/2000/svg">
<line x1="37" y1="121" x2="8" y2="121" stroke="#EAEAEA" stroke-width="4"/>
<line x1="37" y1="160" x2="8" y2="160" stroke="#EAEAEA" stroke-width="4"/>
<line x1="117" y1="160" x2="88" y2="160" stroke="#EAEAEA" stroke-width="4"/>
<line x1="76" y1="160" x2="47" y2="160" stroke="#EAEAEA" stroke-width="4"/>
<line x1="156" y1="160" x2="127" y2="160" stroke="#EAEAEA" stroke-width="4"/>
<line x1="76" y1="121" x2="47" y2="121" stroke="#0F0F0F" stroke-width="4"/>
<line x1="76" y1="81" x2="47" y2="81" stroke="#EAEAEA" stroke-width="4"/>
<line x1="155.733" y1="81" x2="126.733" y2="81" stroke="#EAEAEA" stroke-width="4"/>
<line x1="155.733" y1="121" x2="126.733" y2="121" stroke="#EAEAEA" stroke-width="4"/>
<line x1="115" y1="42" x2="86" y2="42" stroke="#0F0F0F" stroke-width="4"/>
<line x1="154" y1="42" x2="125" y2="42" stroke="#EAEAEA" stroke-width="4"/>
<line x1="154" y1="3" x2="125" y2="3" stroke="#EAEAEA" stroke-width="4"/>
<line x1="2.21149" y1="9.30029" x2="1.99995" y2="38.2995" stroke="#EAEAEA" stroke-width="4"/>
<line x1="2.21149" y1="47.0146" x2="1.99995" y2="76.0138" stroke="#EAEAEA" stroke-width="4"/>
<line x1="2.21149" y1="86.0146" x2="1.99995" y2="115.014" stroke="#EAEAEA" stroke-width="4"/>
<line x1="2.21149" y1="125.015" x2="1.99995" y2="154.014" stroke="#EAEAEA" stroke-width="4"/>
<line x1="41.2115" y1="9.30029" x2="41" y2="38.2995" stroke="#EAEAEA" stroke-width="4"/>
<line x1="41.2115" y1="47.0146" x2="41" y2="76.0138" stroke="#EAEAEA" stroke-width="4"/>
<line x1="41.2115" y1="86.0146" x2="41" y2="115.014" stroke="#0F0F0F" stroke-width="4"/>
<line x1="80.1914" y1="35.4156" x2="80.2979" y2="6.41577" stroke="#EAEAEA" stroke-width="4"/>
<line x1="80.1914" y1="75.9925" x2="80.2979" y2="46.9927" stroke="#EAEAEA" stroke-width="4"/>
<line x1="120.029" y1="35.4156" x2="120.135" y2="6.41577" stroke="#EAEAEA" stroke-width="4"/>
<line x1="120.029" y1="113.992" x2="120.135" y2="84.9927" stroke="#EAEAEA" stroke-width="4"/>
<line x1="120.029" y1="153.992" x2="120.135" y2="124.993" stroke="#EAEAEA" stroke-width="4"/>
<line x1="159" y1="113.992" x2="159.106" y2="84.9927" stroke="#EAEAEA" stroke-width="4"/>
<line x1="159" y1="153.992" x2="159.106" y2="124.993" stroke="#EAEAEA" stroke-width="4"/>
<line x1="7.11859" y1="2.64301" x2="36.1115" y2="2.0005" stroke="#EAEAEA" stroke-width="4"/>
<line x1="46.1185" y1="2.64301" x2="75.1114" y2="2.0005" stroke="#EAEAEA" stroke-width="4"/>
<line x1="85.9557" y1="2.64301" x2="114.949" y2="2.0005" stroke="#EAEAEA" stroke-width="4"/>
<line x1="36.3085" y1="42.0905" x2="7.31815" y2="42.8381" stroke="#EAEAEA" stroke-width="4"/>
<line x1="36.3085" y1="79.8049" x2="7.31815" y2="80.5524" stroke="#EAEAEA" stroke-width="4"/>
<line x1="116.042" y1="79.8049" x2="87.0516" y2="80.5524" stroke="#EAEAEA" stroke-width="4"/>
<line x1="116.042" y1="119.999" x2="87.0516" y2="120.747" stroke="#EAEAEA" stroke-width="4"/>
<line x1="75.3085" y1="42.0905" x2="46.3182" y2="42.8381" stroke="#EAEAEA" stroke-width="4"/>
<line x1="41" y1="154" x2="41" y2="126" stroke="#EAEAEA" stroke-width="4"/>
<line x1="80" y1="114" x2="80" y2="86" stroke="#EAEAEA" stroke-width="4"/>
<line x1="80" y1="154" x2="80" y2="126" stroke="#EAEAEA" stroke-width="4"/>
<line x1="119" y1="75" x2="119" y2="47" stroke="#0F0F0F" stroke-width="4"/>
<line x1="158" y1="75" x2="158" y2="47" stroke="#EAEAEA" stroke-width="4"/>
<line x1="158" y1="36" x2="158" y2="8" stroke="#EAEAEA" stroke-width="4"/>
<line x1="35.4142" y1="127.414" x2="8.41421" y2="154.414" stroke="#EAEAEA" stroke-width="4"/>
<line x1="74.4142" y1="87.4142" x2="47.4142" y2="114.414" stroke="#0F0F0F" stroke-width="4"/>
<line x1="113.414" y1="48.4142" x2="86.4142" y2="75.4142" stroke="#0F0F0F" stroke-width="4"/>
<line x1="152.414" y1="9.41421" x2="125.414" y2="36.4142" stroke="#EAEAEA" stroke-width="4"/>
</svg>
